# xmcd CD database file
#
# Track frame offsets:
#	150
#	22814
#	39165
#	61785
#	79709
#	102774
#	125822
#	142397
#	158176
#	178969
#	192244
#	209344
#	224176
#	240713
#	262988
#	292274
#	319786
#	354686
#
# Disc length: 4765 seconds
#
# Revision: 0
# Processed by: cddbd v1.5.2PL0 Copyright (c) Steve Scherf et al.
# Submitted via: CDex 1.70beta2
#
DISCID=1c129b12
DTITLE=diverse - wolfstrail
DYEAR=2003
DGENRE=Blues
TTITLE0=spooky tooth - tears
TTITLE1=marc selby - what am i doin'
TTITLE2=a. king and s. r. vaughan - ask me no questions
TTITLE3=buddah heads - talkin' trash
TTITLE4=carl verheyen - under saturn rings
TTITLE5=walter trout - prisoner of a dream
TTITLE6=ronnie wood - show me
TTITLE7=peter schneider blues band - downtown
TTITLE8=tito and tarantula - angry cockroaches
TTITLE9=reddog - juke jumper
TTITLE10=gringos locos - jean jinx jane
TTITLE11=van halen - ice cream man
TTITLE12=baker, bruce, moore - waiting in the wings
TTITLE13=aynsley lister - angel o' mine
TTITLE14=michael keaton - lucky, lucky, lucky
TTITLE15=james solberg - l.a. blues
TTITLE16=gun club - anger blues
TTITLE17=bonusdreck_mundstuhl - riech-hifi
EXTD=YEAR: 2003
EXTT0=
EXTT1=
EXTT2=
EXTT3=
EXTT4=
EXTT5=
EXTT6=
EXTT7=
EXTT8=
EXTT9=
EXTT10=
EXTT11=
EXTT12=
EXTT13=
EXTT14=
EXTT15=
EXTT16=
EXTT17=
PLAYORDER=
